<svg xmlns="http://www.w3.org/2000/svg" width="250" height="250" fill="none" viewBox="0 0 250 250">
<!-- SVG created with Arrow, by QuiverAI (https://quiver.ai) -->
  <path d="m119.8 65.11-25.81-27.41c-0.98-1.05-1.75-1.61-3.27-1.61h-76.98c-4.72 0-6.21 4.72-6.21 7.69v135.7c0 4.47 1.63 6.46 5.95 8.36l56.34 24.11c5.92 2.59 10.22-1.28 10.22-6.92v-18.19h33.3c6.8 0 9.16-6.54 9.16-10.05v-41.32h-5.69v40.64c0 2.71-1.22 4.07-3.26 4.07h-33v-19.47h23.15c2.22 0 2.41-1.58 2.41-2.77 0-1.52-0.97-2.62-2.45-2.62h-23.11v-9.53h23.15c1.95 0 2.39-1.5 2.39-2.5 0-1.35-0.97-2.7-2.39-2.7h-23.15v-32.27h23.15c1.87 0 2.32-1.48 2.32-2.66 0-1.43-0.96-2.73-2.32-2.73h-23.15v-9.06h23.15c1.99 0 2.39-1.7 2.39-2.75 0-1.49-0.97-2.54-2.39-2.54h-23.35v-17.55c0-4.8-2.41-6.62-6.25-8.21l-47.08-19.55 60.88-0.07v16.94c0 6.98 4.18 11.33 10.67 11.33h18.5v41.46h5.43v-42.86c0-2.13-1-3.25-2.7-4.95zm-46.53 141-58.31-23.99c-1.32-0.62-1.7-1.18-1.7-3.17v-134.5l59.43 24.92c0.97 0.46 0.97 0.46 0.97 1.98v133.3c0 1.08 0 1.6-0.39 1.46zm25.92-140.9c-4.48 0-5.25-3.37-5.25-6.14v-12.36l17.05 18.11c0.32 0.34 0.22 0.39-0.46 0.39h-11.34z" fill="url(#paint0_linear_6_16521)"/>
  <path d="m24.98 69.01c-1.6 0-2.72 1.05-2.68 2.53v29.08c0 1.44 0.74 2.67 2.82 3.56l36.33 15.33c2.33 0.97 2.48-0.67 2.48-2.15v-29.8c0-1.35-1.13-2.2-2.66-2.86l-35.16-15.38c-0.4-0.21-0.78-0.31-1.13-0.31z" fill="url(#paint1_linear_6_16521)"/>
  <path d="m23.72 116.4c0 1.89 1.39 2.72 3.03 3.4l34.43 15.61c2.52 1.09 2.74 0 3.13-1.31 0.44-1.45-0.45-2.96-1.87-3.61l-36.93-15.39c-0.93-0.41-1.79 0.19-1.79 1.3z" fill="url(#paint2_linear_6_16521)"/>
  <path d="m22.69 132.2c0 1.61 0.49 2.7 2.53 3.54l35.81 14.92c2.83 1.17 3.28-0.61 3.28-1.77 0-1.48-1.1-2.19-3.09-3.14l-35.56-16.16c-1.85-0.85-2.97 0.04-2.97 2.61z" fill="url(#paint3_linear_6_16521)"/>
  <path d="m22.69 147.6c0 1.85 0.92 2.41 3.13 3.38l35.21 15.8c2.36 1.05 2.98-0.57 2.8-2.17-0.22-1.85-1.61-2.56-3.74-3.61l-34.35-15.65c-1.82-0.85-3.05 0.27-3.05 2.25z" fill="url(#paint4_linear_6_16521)"/>
  <path d="m22.69 163.8c0 1.68 1.42 2.62 3.27 3.47l18.5 7.23c2.13 0.89 2.85-0.75 2.76-2.45s-1.79-2.79-3.49-3.6l-17.77-7.06c-1.85-0.85-3.27 0.37-3.27 2.41z" fill="url(#paint5_linear_6_16521)"/>
  <path d="m129.7 106-0.06 11.19-36.99 0.13v13.55h36.99v10.84l24.35-18.43-24.29-17.28z" fill="url(#paint6_linear_6_16521)" stroke="url(#paint6_linear_6_16521)" stroke-miterlimit="10" stroke-width="1.3"/>
  <path d="m140.2 99.31c-2.13 3.26-1.42 6 1.84 8.53l19.38 12.94 27.72-33.46c2.53-3.2 5.2-4.51 9.04-5.13l8.19-2.43-3.47-25.75c-0.62-4-3.45-5.35-6.76-4.46l-23.27 4.39c-3.12 0.55-4.54 1.77-6.53 4.7l-26.14 40.67zm50.84-40.53c3.73-0.47 4.93 2.53 4.83 5.11-0.13 3.13-2.31 4.92-5.19 4.62-3.04-0.33-4.41-2.68-4.19-5.08 0.26-2.81 2.28-4.35 4.55-4.65z" fill="url(#paint8_linear_6_16521)"/>
  <path d="m162.7 140 37.2-39.3c2.83-3.12 5-3.51 8.9-3.64l20.62-0.9-0.45-8.73c-0.45-4.27-3.19-5.92-6.75-5.3l-23.92 2.74c-3.3 0.46-5.52 1.81-7.42 4.89l-31.88 39.96c-3.04 3.95-1.99 8.26 2.28 10.2l1.42 0.08zm48.6-44.74c0-3.99 2.67-5.38 5.08-5.38 3.68 0 4.82 3.08 4.73 6.53l-9.81 0.73v-1.88z" fill="url(#paint9_linear_6_16521)"/>
  <path d="m237.4 100.5-27.1 1.45c-2.56 0.14-4.1 1.59-6.37 3.99l-36.24 35.05c-2.57 2.61-2.96 6.07 0 8.81l25.45 24.09c2.66 2.53 5.92 1.59 7.66-0.39l37.93-36.59c2.13-2.21 2.57-4.01 2.75-7.85l0.93-22.87c0.27-3.69-1.77-5.9-5.01-5.69zm-7.75 18.43c-3.95-0.34-5.64-3.17-5.47-5.52 0.26-3.37 2.63-4.72 4.99-4.64 3.17 0.12 4.98 2.65 4.89 5.42-0.13 2.97-2.53 4.91-4.41 4.74z" fill="url(#paint10_linear_6_16521)"/>
  <path d="m216.8 131.4-5.81 5.44-5.04-5.12 5.81-5.44-3.13-2.94-6.18 5.85-4.48-3.95-3.12 2.74 4.48 4.47-6.35 6.06-4.18-4.18-3.12 3.12 4.26 3.99-5.98 5.3 3.12 2.74 6.26-5.84 5.13 4.59-6.89 6.1 3.36 2.43 6.49-6.22 4.47 3.79 2.84-3.08-3.96-3.79 6.58-6.22 4.39 4.19 3.21-3.37-4.38-4.23 5.97-5.18-3.75-1.25zm-14.62 13.52-5.44-5.18 6.07-5.85 5.43 5.44-6.06 5.59z" fill="#FEFFFE"/>
  <path d="m183.1 82.93-5.04 5.84-5.43-3.68 4.66-7.47-4.04-1.89-4.87 7.2-4.14-3.22-2.83 3.55 4.38 3.08-5.81 6.97-2.66-3.26-2.74 3.55 3.35 2.74-4.56 5.77 3.12 2.21 5.04-5.85 5.81 3.64-4.8 6.12 3.56 1.48 5.17-6.79 3.47 1.94 2.18-3.12-3.13-2.12 5.81-6.97 3.12 2.21 2.04-3.27-2.74-1.89 4.57-5.44-3.49-1.33zm-11.38 16.16-7-4.74 5.3-6.54 6.66 4.43-4.96 6.85z" fill="#FEFFFE"/>
  <defs>
    <linearGradient id="paint0_linear_6_16521" x1="27.08" x2="87.27" y1="40.01" y2="210.8" gradientUnits="userSpaceOnUse">
      <stop stop-color="#51AFE1" offset="0"/>
      <stop stop-color="#5181D1" offset=".4948"/>
      <stop stop-color="#383E95" offset="1"/>
    </linearGradient>
    <linearGradient id="paint1_linear_6_16521" x1="28.95" x2="53.62" y1="70.01" y2="121.9" gradientUnits="userSpaceOnUse">
      <stop stop-color="#4287D2" offset="0"/>
      <stop stop-color="#4D77C4" offset="1"/>
    </linearGradient>
    <linearGradient id="paint2_linear_6_16521" x1="27.23" x2="33.05" y1="115.3" y2="140" gradientUnits="userSpaceOnUse">
      <stop stop-color="#5094D1" offset="0"/>
      <stop stop-color="#4860AE" offset="1"/>
    </linearGradient>
    <linearGradient id="paint3_linear_6_16521" x1="26.25" x2="32.07" y1="129.3" y2="154" gradientUnits="userSpaceOnUse">
      <stop stop-color="#5094D1" offset="0"/>
      <stop stop-color="#4860AE" offset="1"/>
    </linearGradient>
    <linearGradient id="paint4_linear_6_16521" x1="26.25" x2="32.07" y1="145.3" y2="170" gradientUnits="userSpaceOnUse">
      <stop stop-color="#5094D1" offset="0"/>
      <stop stop-color="#4860AE" offset="1"/>
    </linearGradient>
    <linearGradient id="paint5_linear_6_16521" x1="25.75" x2="32.21" y1="160.8" y2="178.2" gradientUnits="userSpaceOnUse">
      <stop stop-color="#5094D1" offset="0"/>
      <stop stop-color="#4860AE" offset="1"/>
    </linearGradient>
    <linearGradient id="paint6_linear_6_16521" x1="98.06" x2="129.7" y1="110.9" y2="147.3" gradientUnits="userSpaceOnUse">
      <stop stop-color="#4966C2" offset="0"/>
      <stop stop-color="#8986F2" offset="1"/>
    </linearGradient>
    <linearGradient id="paint8_linear_6_16521" x1="152.7" x2="191.6" y1="50.34" y2="118.6" gradientUnits="userSpaceOnUse">
      <stop stop-color="#3F92D1" offset="0"/>
      <stop stop-color="#BF86F1" offset="1"/>
    </linearGradient>
    <linearGradient id="paint9_linear_6_16521" x1="167.6" x2="200.9" y1="82.67" y2="146.4" gradientUnits="userSpaceOnUse">
      <stop stop-color="#5B84D2" offset="0"/>
      <stop stop-color="#8979F2" offset="1"/>
    </linearGradient>
    <linearGradient id="paint10_linear_6_16521" x1="175.2" x2="210.2" y1="101.2" y2="173.5" gradientUnits="userSpaceOnUse">
      <stop stop-color="#4677C5" offset="0"/>
      <stop stop-color="#6659CB" offset="1"/>
    </linearGradient>
  </defs>
</svg>